<?xml version="1.0" encoding="UTF-8" standalone="no"?><svg width="301.06" height="152.55" viewBox="0 0 79.66 40.36" version="1.1" id="svg1" xmlns:xlink="http://www.w3.org/1999/xlink" xmlns="http://www.w3.org/2000/svg" xmlns:svg="http://www.w3.org/2000/svg"><defs id="defs1"><linearGradient id="linearGradient24"><stop style="stop-color:#fc1100;stop-opacity:1;" offset="0" id="stop24"/><stop style="stop-color:#ffb000;stop-opacity:1;" offset="1" id="stop23"/></linearGradient><linearGradient xlink:href="#linearGradient24" id="linearGradient7" gradientUnits="userSpaceOnUse" gradientTransform="matrix(.43681 0 0 .43681 3.047 196.983)" x1="18.42" y1="67.67" x2="200.78" y2="67.67" spreadMethod="pad"/></defs><g id="layer1" transform="translate(-11.094 -206.363)"><g id="text2-3-2-0" style="font-size:4.62293px;fill:url(#linearGradient7);stroke-width:0.0160941"><path d="M13.939 206.363v5.69h-2.845v-5.69zm2.845 0v5.69h-2.845v-5.69zm2.845 0v5.69h-2.845v-5.69zm2.845 0v5.69h-2.845v-5.69zm2.844 0v5.69h-2.844v-5.69zm2.845 0v5.69h-2.845v-5.69zm2.845 0v5.69h-2.845v-5.69zm2.845 0v5.69h-2.845v-5.69zm8.535 0v5.69h-2.845v-5.69zm2.845 0v5.69h-2.845v-5.69zm22.759 0v5.69h-2.845v-5.69zm2.845 0v5.69h-2.845v-5.69zm17.069 0v5.69H85.06v-5.69zm2.845 0v5.69h-2.845v-5.69z" id="path1"/><path d="M13.939 212.142v5.69h-2.845v-5.69zm2.845 0v5.69h-2.845v-5.69zm17.07 0v5.69h-2.846v-5.69zm2.844 0v5.69h-2.845v-5.69zm5.69 0v5.69h-2.845v-5.69zm2.845 0v5.69h-2.845v-5.69zm25.604 0v5.69h-2.845v-5.69zm2.844 0v5.69h-2.844v-5.69zm11.38 0v5.69h-2.845v-5.69zm2.845 0v5.69H85.06v-5.69z" id="path2"/><path d="M13.939 217.92v5.69h-2.845v-5.69zm2.845 0v5.69h-2.845v-5.69zm17.07 0v5.69h-2.846v-5.69zm2.844 0v5.69h-2.845v-5.69zm5.69 0v5.69h-2.845v-5.69zm2.845 0v5.69h-2.845v-5.69zm28.448 0v5.69h-2.844v-5.69zm2.845 0v5.69h-2.845v-5.69zm5.69 0v5.69h-2.845v-5.69zm2.845 0v5.69h-2.845v-5.69z" id="path3"/><path d="M13.939 223.699v5.69h-2.845v-5.69zm2.845 0v5.69h-2.845v-5.69zm2.845 0v5.69h-2.845v-5.69zm2.845 0v5.69h-2.845v-5.69zm2.844 0v5.69h-2.844v-5.69zm2.845 0v5.69h-2.845v-5.69zm2.845 0v5.69h-2.845v-5.69zm2.845 0v5.69h-2.845v-5.69zm8.535 0v5.69h-2.845v-5.69zm2.845 0v5.69h-2.845v-5.69zm31.293 0v5.69h-2.845v-5.69zm2.845 0v5.69h-2.845v-5.69zm2.845 0v5.69h-2.845v-5.69z" id="path4"/><path d="M13.939 229.478v5.69h-2.845v-5.69zm2.845 0v5.69h-2.845v-5.69zm25.604 0v5.69h-2.845v-5.69zm2.845 0v5.69h-2.845v-5.69zm28.448 0v5.69h-2.844v-5.69zm2.845 0v5.69h-2.845v-5.69zm5.69 0v5.69h-2.845v-5.69zm2.845 0v5.69h-2.845v-5.69z" id="path5"/><path style="display:inline" d="M13.939 235.256v5.69h-2.845v-5.69zm2.845 0v5.69h-2.845v-5.69zm25.604 0v5.69h-2.845v-5.69zm2.845 0v5.69h-2.845v-5.69zm25.604 0v5.69h-2.845v-5.69zm2.844 0v5.69h-2.844v-5.69zm11.38 0v5.69h-2.845v-5.69zm2.845 0v5.69H85.06v-5.69z" id="path6"/><path d="M13.939 241.035v5.69h-2.845v-5.69zm2.845 0v5.69h-2.845v-5.69zm25.604 0v5.69h-2.845v-5.69zm2.845 0v5.69h-2.845v-5.69zm2.845 0v5.69h-2.845v-5.69zm2.844 0v5.69h-2.844v-5.69zm2.845 0v5.69h-2.845v-5.69zm2.845 0v5.69h-2.845v-5.69zm2.845 0v5.69h-2.845v-5.69zm2.845 0v5.69h-2.845v-5.69zm5.69 0v5.69h-2.845v-5.69zm2.845 0v5.69h-2.845v-5.69zm17.069 0v5.69H85.06v-5.69zm2.845 0v5.69h-2.845v-5.69z" id="path7"/></g></g></svg>
